<svg id="Layer_2" data-name="Layer 2" xmlns="http://www.w3.org/2000/svg" xmlns:xlink="http://www.w3.org/1999/xlink" viewBox="0 0 1000 1000"><defs><style>.cls-1{fill:#fff;}.cls-2{fill:#d62557;}.cls-3{fill:#1fe5cb;}.cls-4{fill:#067cf7;}.cls-5{fill:#fcffff;}.cls-6{fill:#1c052f;}.cls-7{mask:url(#mask);}</style><mask id="mask" x="746.01" y="334.02" width="145.82" height="334.6" maskUnits="userSpaceOnUse"><path class="cls-1" d="M887.1,404V597.5a68.2,68.2,0,0,1-136.4,0V404a68.2,68.2,0,1,1,136.4,0Z"/></mask></defs><title>Logo</title><rect width="1000" height="1000" rx="127.2"/><circle class="cls-2" cx="816.7" cy="283" r="26.4"/><circle class="cls-1" cx="813.8" cy="277.1" r="8.8"/><path class="cls-3" d="M104.5,95.7,286.7,323.3A146.7,146.7,0,0,1,104.5,95.7Z"/><path class="cls-3" d="M354.8,199.4a146.2,146.2,0,0,1-42.9,103.7L129.7,75.5A146.7,146.7,0,0,1,354.8,199.4Z"/><circle class="cls-2" cx="137.8" cy="476.5" r="92.4"/><g id="Gamepad"><path class="cls-3" d="M707.4,872.7c-8.1,9.5-14.4,25.4-24.1,32-11.9,8.1-26.4,9.6-35.2,10.3-24.9,10.2-46.9-44.9-60.1-68.3s-58.7-19.1-63.1-19.1-8.8-13.2-22-19.1-71.8-5.8-85,0-2.9,4.4-24.9,20.6c-55.8-19.1-76.3,46.9-88,71.8s-58.7,16.2-64.5-2.9c-3.9-13.6-16.2-22.1-24-26.2,6.7-48.7,29.1-137.3,29.1-137.3A132.6,132.6,0,0,1,256.7,698c12.1-.9,27.2-4.7,38-17,20.5-23.5,79.2-8.8,107.1-10.3s134.9,0,134.9,0,48.3-1.4,55.7-4.4c14.6-2.9,30.8,3,36.6,8.8,3.7,3.7,21.4,16.4,37.6,21.9a134,134,0,0,1,11.6,37.5S700.8,824.3,707.4,872.7Z"/><path class="cls-4" d="M708.9,897.3c-2.9,29.3-26.3,49.8-49.8,54.2s-52.1-6.6-64.5-35.2L577,869.4s-3.7-13.9-19.8-12.5c-17.6,3-51.3,11.8-67.5-13.2-4.4-7.3-10.2-7.3-10.2-7.3H444.3s-5.9,0-10.3,7.3c-16.1,25-49.8,16.2-67.4,13.2-16.2-1.4-19.8,12.5-19.8,12.5l-17.6,46.9c-12.5,28.6-41.1,39.6-64.5,35.2s-47-24.9-49.9-54.2c-.5-5.5.2-14.5,1.7-25.5,7.8,4.1,20.1,12.6,24,26.2,5.8,19.1,52.8,27.9,64.5,2.9s32.2-90.9,88-71.8c22-16.2,11.7-14.7,24.9-20.6s71.8-5.8,85,0,17.6,19.1,22,19.1,49.9-4.4,63.1,19.1,33.3,70.7,60.1,67.4c20.9-2.5,37.4-12,42.5-21.1,8.1-14.3,11.7-17.6,16.8-20.3C708.8,883.4,709.5,892,708.9,897.3Z"/><path class="cls-5" d="M666.6,697c-16.2-5.5-33.9-18.2-37.6-21.9-5.8-5.8-22-11.7-36.6-8.8-7.4,3-55.7,4.4-55.7,4.4s-107.1-1.4-134.9,0S315.2,657.5,294.7,681c-10.8,12.3-25.9,16.1-38,17,15.5-32,38.8-39.7,38.8-39.7s-2.2-24.2,25.6-24.2h32.3s16.1,0,16.1,16.1H554.3c0-16.1,16.1-16.1,16.1-16.1h32.2c27.9,0,25.7,24.2,25.7,24.2S651.1,665.9,666.6,697Z"/><path class="cls-6" d="M376.1,732.7v13.8a8.5,8.5,0,0,1-8.5,8.5H340.9v26.7a8.5,8.5,0,0,1-8.5,8.5H318.6a8.5,8.5,0,0,1-8.5-8.5V755H283.4a8.5,8.5,0,0,1-8.5-8.5V732.7a8.5,8.5,0,0,1,8.5-8.5h26.7V697.5a8.5,8.5,0,0,1,8.5-8.5h13.8a8.5,8.5,0,0,1,8.5,8.5v26.7h26.7A8.5,8.5,0,0,1,376.1,732.7Z"/><circle class="cls-6" cx="562.3" cy="737.4" r="16.1"/><circle class="cls-6" cx="596" cy="703.7" r="16.1"/><circle class="cls-6" cx="629.8" cy="737.4" r="16.1"/><circle class="cls-6" cx="596" cy="771.2" r="16.1"/><circle class="cls-6" cx="461.9" cy="733" r="11.7"/><circle class="cls-6" cx="423.8" cy="733" r="11.7"/><circle class="cls-6" cx="500" cy="733" r="11.7"/><path class="cls-6" d="M399.6,781.4A26.4,26.4,0,1,0,426,807.8,26.4,26.4,0,0,0,399.6,781.4Zm0,33.7a7.3,7.3,0,1,1,7.3-7.3A7.3,7.3,0,0,1,399.6,815.1Z"/><path class="cls-6" d="M521.3,781.4a26.4,26.4,0,1,0,26.4,26.4A26.4,26.4,0,0,0,521.3,781.4Zm0,33.7a7.3,7.3,0,1,1,7.3-7.3A7.3,7.3,0,0,1,521.3,815.1Z"/></g><g id="Headset"><path class="cls-3" d="M545.5,353.4v30.8H447.2V353.4h7.3c23.5,0,14.7-7.4,39.6-7.4s16.2,7.4,39.6,7.4Z"/><path class="cls-1" d="M545.5,328.4v25H533.7c-23.4,0-14.6-7.4-39.6-7.4s-16.1,7.4-39.6,7.4h-7.3v-25C478,315.2,513.2,315.2,545.5,328.4Z"/><path class="cls-2" d="M720.6,449.2c-.1-2-.3-4-.5-6-3.7-29.2-19.7-51.9-46.7-66.1a120.1,120.1,0,0,0-41.8-12.7H350.8A120.7,120.7,0,0,0,309,377.1c-26.9,14.2-43,36.9-46.7,66.1-.2,2-.4,4-.5,6v52.7c0,.2.1,1.4.3,3.2a123.5,123.5,0,0,0,13.9,46.3c12.5,23,38.4,50.5,90.7,50.5,61.2,0,80.7-23.4,94.9-40.5,9.5-11.4,14.2-17.1,29.3-16.7h.8c15.1-.4,19.8,5.3,29.3,16.7,14.2,17.1,33.7,40.5,94.9,40.5,52.3,0,78.2-27.5,90.7-50.5a123.2,123.2,0,0,0,13.9-46.2c.2-1.9.3-3.1.3-3.3V449.2Zm-27.8,51.9a55.4,55.4,0,0,1-.9,7.4,93.4,93.4,0,0,1-9.9,29.6C669.1,562,646.8,574,615.8,574c-48.1,0-61-15.5-73.5-30.4-10.4-12.6-22.2-26.8-49.2-26.8h-1.9c-28.4-.7-40.5,13.8-51.1,26.7-12.5,14.9-25.4,30.4-73.5,30.4-30.7,0-52.8-11.8-65.8-35.1a98.7,98.7,0,0,1-10.3-30,61.9,61.9,0,0,1-.9-7.8V450.6a65.9,65.9,0,0,1,2.8-14.8c11.7-37.3,54.8-43,60.2-43.6H629.8a94.3,94.3,0,0,1,30.7,9.6c15.3,8.1,25.3,19.7,29.8,34.7a69.1,69.1,0,0,1,2.5,14.1Z"/><path class="cls-3" d="M692.8,450.6v50.5a55.4,55.4,0,0,1-.9,7.4c-12.7,3.4-26.5,10-40.1,21.6-48.4,41-88-5.9-112.9-19.1s-32.3-14.7-48.4-14.7S467,497.8,442.1,511s-64.5,60.1-112.9,19.1a102.5,102.5,0,0,0-38.7-21.2,61.9,61.9,0,0,1-.9-7.8V450.6a65.9,65.9,0,0,1,2.8-14.8c17.5-7.2,35.9-17.2,67.6-17.2H621c32.7,0,51.2,10.6,69.3,17.9A69.1,69.1,0,0,1,692.8,450.6Z"/><path class="cls-4" d="M691.9,508.5a93.4,93.4,0,0,1-9.9,29.6C669.1,562,646.8,574,615.8,574c-48.1,0-61-15.5-73.5-30.4-10.4-12.6-22.2-26.8-49.2-26.8h-1.9c-28.4-.7-40.5,13.8-51.1,26.7-12.5,14.9-25.4,30.4-73.5,30.4-30.7,0-52.8-11.8-65.8-35.1a98.7,98.7,0,0,1-10.3-30,102.5,102.5,0,0,1,38.7,21.2c48.4,41,88-5.9,112.9-19.1s32.2-14.7,48.4-14.7,23.4,1.5,48.4,14.7,64.5,60.1,112.9,19.1C665.4,518.5,679.2,511.9,691.9,508.5Z"/><path class="cls-1" d="M690.3,436.5c-18.1-7.3-36.6-17.9-69.3-17.9H360c-31.7,0-50.1,10-67.6,17.2,11.7-37.3,54.8-43,60.2-43.6H629.8a94.3,94.3,0,0,1,30.7,9.6C675.8,409.9,685.8,421.5,690.3,436.5Z"/></g><circle cx="137.8" cy="476.5" r="66"/><polygon class="cls-3" points="838.7 170.5 838.7 99.3 777.1 63.8 715.5 99.3 715.5 170.5 777.1 206 838.7 170.5"/><path class="cls-3" d="M794.7,228.7a17.6,17.6,0,1,1-26.4-15.2V155.4h17.6v58.1A17.4,17.4,0,0,1,794.7,228.7Z"/><path class="cls-3" d="M794.7,41.1a17.6,17.6,0,1,0-26.4,15.2v58.1h17.6V56.3A17.4,17.4,0,0,0,794.7,41.1Z"/><path class="cls-3" d="M867.2,166.6a17.6,17.6,0,1,1-26.4,15.2l-50.3-29,8.8-15.3,50.3,29.1A17.3,17.3,0,0,1,867.2,166.6Z"/><path class="cls-3" d="M704.7,72.7a17.7,17.7,0,0,0-24.1,6.5,17.6,17.6,0,0,0,24.1,24l50.2,29.1,8.8-15.3L713.5,88A17.8,17.8,0,0,0,704.7,72.7Z"/><path class="cls-3" d="M849.6,72.7a17.6,17.6,0,1,1,0,30.5l-50.3,29.1L790.5,117l50.3-29A17.6,17.6,0,0,1,849.6,72.7Z"/><path class="cls-3" d="M687.1,166.6a17.5,17.5,0,0,0-6.5,24,17.6,17.6,0,0,0,32.9-8.8l50.2-29-8.8-15.3-50.2,29.1A17.3,17.3,0,0,0,687.1,166.6Z"/><polygon points="815.2 156.9 815.2 112.9 777.1 90.9 739 112.9 739 156.9 777.1 178.9 815.2 156.9"/><circle class="cls-1" cx="777.1" cy="134.9" r="13.2"/><g class="cls-7"><path class="cls-3" d="M887.1,404V597.5a68.2,68.2,0,0,1-136.4,0V404a68.2,68.2,0,1,1,136.4,0Z"/><path class="cls-1" d="M890,405.1v13.5c-31.2-11.1-24.1-51.7-70.3-52.5-46.7.8-39,42.1-71.1,52.8h-.8V405.1a71.1,71.1,0,0,1,142.2,0Z"/><path class="cls-1" d="M891.8,578.7v17a72.9,72.9,0,1,1-145.8,0V578.2l.8.3c32.9,10.9,25.1,53.3,72.9,54.1C867.1,631.8,859.8,590.1,891.8,578.7Z"/></g><path d="M818.9,395.2a44,44,0,1,0,44,43.9A44,44,0,0,0,818.9,395.2Zm0,64.5a20.6,20.6,0,1,1,20.5-20.6A20.5,20.5,0,0,1,818.9,459.7Z"/><path class="cls-4" d="M839.4,439.1a20.5,20.5,0,1,1-41,0,24,24,0,0,1,.5-4.6,14.8,14.8,0,0,0,8.3,2.5,15.4,15.4,0,0,0,15.4-15.4,12.4,12.4,0,0,0-.3-2.7A20.4,20.4,0,0,1,839.4,439.1Z"/><path class="cls-1" d="M822.6,421.6A15.4,15.4,0,0,1,807.2,437a14.8,14.8,0,0,1-8.3-2.5,20.6,20.6,0,0,1,20-15.9,18.7,18.7,0,0,1,3.4.3A12.4,12.4,0,0,1,822.6,421.6Z"/><circle cx="818.9" cy="519.8" r="14.7"/><circle cx="818.9" cy="607.8" r="14.7"/><circle cx="818.9" cy="563.8" r="14.7"/><circle cx="789.6" cy="563.8" r="14.7"/><circle cx="848.2" cy="563.8" r="14.7"/><path class="cls-4" d="M176,476.5a38.2,38.2,0,1,1-76.3,0,39.8,39.8,0,0,1,2.4-13.4,26.4,26.4,0,0,0,35.7-24.7A38.2,38.2,0,0,1,176,476.5Z"/><path class="cls-1" d="M137.8,438.4a26.4,26.4,0,0,1-35.7,24.7A38.3,38.3,0,0,1,137.8,438.4Z"/><circle class="cls-3" cx="52.8" cy="297.7" r="11.7"/><circle class="cls-3" cx="52.8" cy="340.2" r="13.2"/><circle class="cls-3" cx="224.3" cy="384.2" r="16.1"/><circle class="cls-3" cx="230.2" cy="563" r="16.1"/><circle class="cls-3" cx="51.3" cy="568.9" r="16.1"/><circle class="cls-3" cx="45.5" cy="390" r="16.1"/><circle class="cls-1" cx="261" cy="611.4" r="22"/><circle class="cls-3" cx="86.5" cy="335.8" r="13.2"/><circle class="cls-3" cx="346" cy="70.4" r="11.7"/><circle class="cls-2" cx="617.3" cy="77.7" r="11.7"/><circle class="cls-2" cx="617.3" cy="137.8" r="19.1"/><circle class="cls-3" cx="909.1" cy="137.8" r="22"/><circle class="cls-3" cx="926.7" cy="205.3" r="11.7"/><circle class="cls-2" cx="926.7" cy="274.2" r="23.5"/><circle cx="926.7" cy="274.2" r="7.3"/><circle class="cls-1" cx="928.9" cy="345.3" r="28.6"/><circle cx="928.9" cy="345.3" r="9.5"/><circle class="cls-3" cx="931.1" cy="410.6" r="19.1"/><circle class="cls-2" cx="933.3" cy="477.3" r="24.2"/><circle cx="933.3" cy="477.3" r="8.1"/><circle class="cls-3" cx="154.7" cy="912.8" r="19.8"/><circle cx="154.7" cy="912.8" r="6.6"/><circle class="cls-3" cx="929.6" cy="542.5" r="16.1"/><circle class="cls-3" cx="932.6" cy="607" r="14.7"/><circle class="cls-3" cx="744.9" cy="882.7" r="13.2"/><circle class="cls-3" cx="945.7" cy="799.1" r="11.7"/><circle class="cls-3" cx="937" cy="722.9" r="10.3"/><circle class="cls-3" cx="926.7" cy="671.6" r="23.5"/><circle class="cls-3" cx="747.8" cy="686.2" r="10.3"/><circle class="cls-3" cx="714.1" cy="711.1" r="7.3"/><circle class="cls-3" cx="768.3" cy="934" r="22"/><circle class="cls-3" cx="833.6" cy="930.4" r="22.7"/><circle class="cls-3" cx="541.8" cy="927.4" r="13.9"/><circle class="cls-3" cx="601.9" cy="326.2" r="9.5"/><circle class="cls-3" cx="714.8" cy="361.4" r="12.5"/><circle class="cls-3" cx="393" cy="77.7" r="13.2"/><rect class="cls-3" x="366.6" y="285.9" width="17.6" height="54.25" rx="2.2"/><rect class="cls-3" x="366.6" y="285.9" width="17.6" height="54.25" rx="2.2" transform="translate(62.3 688.4) rotate(-90)"/><rect class="cls-3" x="488.3" y="585" width="11.7" height="32.26" rx="2"/><rect class="cls-3" x="488.3" y="585" width="11.7" height="32.26" rx="2" transform="translate(-107 1095.3) rotate(-90)"/><rect class="cls-3" x="702.3" y="617.3" width="13.2" height="58.65" rx="2.2"/><rect class="cls-3" x="702.3" y="617.3" width="13.2" height="58.65" rx="2.2" transform="translate(62.3 1355.6) rotate(-90)"/><polygon class="cls-2" points="473.6 187.7 500 187.7 450.1 291.8 423.8 291.8 473.6 187.7"/><polygon class="cls-2" points="379.8 187.7 406.2 187.7 450.1 291.8 423.8 291.8 379.8 187.7"/><path class="cls-2" d="M595.3,256.6c46.2-11,31.5-66.7-2.9-68.9H527.9V291.8l27.1.7V258.8h17.6l24.2,33h27.8Zm-15.4-19.8H553.5V206h26.4C600.4,206,600.4,236.8,579.9,236.8Z"/><circle class="cls-2" cx="822.6" cy="787.4" r="93.8"/><polygon class="cls-2" points="360.7 956 416.4 882.7 435.5 882.7 379.8 956 360.7 956"/><polygon class="cls-2" points="434 956 378.3 882.7 359.2 882.7 415 956 434 956"/><path class="cls-2" d="M497.2,930.9c32.3-7.6,22-46.5-2-48.1H450.1v72.7l19,.5V932.5h12.3l16.9,23h19.4Zm-10.7-13.8H468.1V895.6h18.4C500.8,895.6,500.8,917.1,486.5,917.1Z"/><circle cx="822.6" cy="787.4" r="49.9"/><path class="cls-2" d="M161.2,813.3c30.1-7.1,20.6-43.4-1.9-44.9h-42v67.9l17.7.5v-22h11.4l15.8,21.5h18.2Zm-10-12.8H134V780.4h17.2C164.6,780.4,164.6,800.5,151.2,800.5Z"/><path class="cls-2" d="M79.2,765.4H66L36.7,837.2l13.9.8,5.9-14.7H84.3l6.6,13.9h11.7ZM60.9,808.7l10.2-22,8.8,22Z"/><path class="cls-5" d="M828.4,766.9a17.5,17.5,0,0,1-28.3,13.9,23.3,23.3,0,0,1,22.5-16.9,26.2,26.2,0,0,1,5.7.7A17.7,17.7,0,0,1,828.4,766.9Z"/><path class="cls-3" d="M846,787.4a23.5,23.5,0,1,1-46.9,0,20.7,20.7,0,0,1,1-6.6,17.5,17.5,0,0,0,28.3-13.9,17.7,17.7,0,0,0-.1-2.3A23.5,23.5,0,0,1,846,787.4Z"/><rect class="cls-2" x="870.3" y="820.1" width="45.6" height="87.02" rx="3.8" transform="translate(-347.7 927.5) rotate(-47)"/><rect class="cls-3" x="687.2" y="227.9" width="18.8" height="111.48" rx="1.7" transform="translate(3.5 575.6) rotate(-45)"/><rect class="cls-3" x="687.2" y="227.9" width="18.8" height="111.48" rx="1.7" transform="translate(988.6 976.7) rotate(-135)"/><circle cx="208.2" cy="199.4" r="114.4"/><circle class="cls-3" cx="208.2" cy="199.4" r="71.8"/><circle class="cls-3" cx="505.9" cy="110" r="55.7"/><circle cx="208.2" cy="199.4" r="41.1"/><circle class="cls-1" cx="208.2" cy="199.4" r="19.1"/><polygon class="cls-3" points="268.6 274.5 237.7 262.4 263.6 241.7 268.6 274.5"/><rect class="cls-3" x="54.3" y="610" width="152.5" height="107.04" rx="3"/><path class="cls-4" d="M560.9,118.5a55.6,55.6,0,0,1-100.8,23.2,4,4,0,0,1,1.9-6.1l13.6-4.6a7.4,7.4,0,0,1,7.5,1.8,32.2,32.2,0,0,0,55-22.8h0l17.1-5.8a4.9,4.9,0,0,1,6.4,4.6A65.5,65.5,0,0,1,560.9,118.5Z"/><rect x="77.7" y="632" width="92.4" height="61.58" rx="1.5"/><path class="cls-1" d="M547.7,85l-11.6,3.9a7.3,7.3,0,0,1-7.5-1.8,32,32,0,0,0-22.7-9.4A32.3,32.3,0,0,0,473.6,110h0l-19.7,6.7a2.7,2.7,0,0,1-3.6-2.4,57.4,57.4,0,0,1,4.9-27.9,52.9,52.9,0,0,1,31.6-29c25.6-8.5,49.9,1,63.5,18.9A5.6,5.6,0,0,1,547.7,85Z"/><rect class="cls-3" x="104.1" y="654" width="36.7" height="19.06" rx="1.5"/><circle cx="184.8" cy="662.8" r="10.3"/><circle class="cls-4" cx="77.7" cy="878.3" r="8.8"/></svg>